<?xml version="1.0" standalone="no"?><!DOCTYPE svg PUBLIC "-//W3C//DTD SVG 1.1//EN" "http://www.w3.org/Graphics/SVG/1.1/DTD/svg11.dtd"><svg t="1571302518377" class="icon" viewBox="0 0 1024 1024" version="1.1" xmlns="http://www.w3.org/2000/svg" p-id="1575" xmlns:xlink="http://www.w3.org/1999/xlink" width="200" height="200"><defs><style type="text/css"></style></defs><path d="M513.28 11.52C231.68 11.52 2.56 240.64 2.56 522.24c0 230.4 153.6 426.24 363.52 488.96v-124.16C221.44 829.44 120.32 687.36 120.32 523.52c0-216.32 176.64-392.96 392.96-392.96S906.24 307.2 906.24 523.52c0 165.12-102.4 305.92-245.76 364.8v124.16C870.4 948.48 1024 753.92 1024 523.52 1024 240.64 794.88 11.52 513.28 11.52z" fill="#242424" p-id="1576"></path><path d="M513.28 174.08c-192 0-349.44 156.16-349.44 349.44 0 139.52 83.2 259.84 202.24 316.16v-66.56c-85.76-49.92-143.36-143.36-143.36-249.6 0-160 130.56-290.56 290.56-290.56s290.56 130.56 290.56 290.56c0 106.24-57.6 199.68-143.36 249.6v66.56c119.04-55.04 202.24-176.64 202.24-316.16 0-193.28-157.44-349.44-349.44-349.44z" fill="#242424" p-id="1577"></path><path d="M576 668.16h-125.44l62.72-357.12z" fill="#242424" p-id="1578"></path></svg>