<?xml version="1.0" standalone="no"?><!DOCTYPE svg PUBLIC "-//W3C//DTD SVG 1.1//EN" "http://www.w3.org/Graphics/SVG/1.1/DTD/svg11.dtd"><svg t="1571032687562" class="icon" viewBox="0 0 1024 1024" version="1.1" xmlns="http://www.w3.org/2000/svg" p-id="2223" xmlns:xlink="http://www.w3.org/1999/xlink" width="200" height="200"><defs><style type="text/css"></style></defs><path d="M170.666667 170.666667h170.666666v85.333333H170.666667V170.666667z m512 640h170.666666v85.333333h-170.666666v-85.333333zM85.333333 384h213.333334v85.333333H85.333333V384z m298.666667 0h128v85.333333H384V384z m213.333333 0h256v85.333333h-256V384zM170.666667 597.333333h256v85.333334H170.666667v-85.333334z m341.333333 0h128v85.333334h-128v-85.333334z m213.333333 0h213.333334v85.333334h-213.333334v-85.333334zM426.666667 170.666667h512v85.333333H426.666667V170.666667zM85.333333 810.666667h512v85.333333H85.333333v-85.333333z" p-id="2224" fill="#242424"></path></svg>