<?xml version="1.0" standalone="no"?><!DOCTYPE svg PUBLIC "-//W3C//DTD SVG 1.1//EN" "http://www.w3.org/Graphics/SVG/1.1/DTD/svg11.dtd"><svg t="1571039554221" class="icon" viewBox="0 0 1024 1024" version="1.1" xmlns="http://www.w3.org/2000/svg" p-id="1943" xmlns:xlink="http://www.w3.org/1999/xlink" width="200" height="200"><defs><style type="text/css"></style></defs><path d="M426.666667 256a341.333333 341.333333 0 0 0 510.08 296.789333C916.224 769.28 733.866667 938.666667 512 938.666667 276.352 938.666667 85.333333 747.648 85.333333 512c0-221.866667 169.386667-404.224 385.877334-424.746667A339.754667 339.754667 0 0 0 426.666667 256z m-256 256a341.333333 341.333333 0 0 0 341.333333 341.333333 341.589333 341.589333 0 0 0 296.832-172.586666c-13.482667 1.28-27.136 1.92-40.832 1.92-235.648 0-426.666667-191.018667-426.666667-426.666667 0-13.696 0.64-27.306667 1.92-40.832A341.589333 341.589333 0 0 0 170.666667 512z m604.330666-414.250667L810.666667 106.666667v42.666666l-35.669334 8.917334a85.333333 85.333333 0 0 0-62.08 62.08L704 256h-42.666667l-8.917333-35.669333a85.333333 85.333333 0 0 0-62.08-62.08L554.666667 149.333333v-42.666666l35.669333-8.917334A85.333333 85.333333 0 0 0 652.373333 35.669333L661.333333 0h42.666667l8.917333 35.669333a85.333333 85.333333 0 0 0 62.08 62.08z m213.333334 213.333334L1024 320v42.666667l-35.669333 8.917333a85.333333 85.333333 0 0 0-62.08 62.08L917.333333 469.333333h-42.666666l-8.917334-35.669333a85.333333 85.333333 0 0 0-62.08-62.08L768 362.666667v-42.666667l35.669333-8.917333a85.333333 85.333333 0 0 0 62.08-62.08L874.666667 213.333333h42.666666l8.917334 35.669334a85.333333 85.333333 0 0 0 62.08 62.08z" p-id="1944" fill="#242424"></path></svg>